<?xml version="1.0" standalone="no"?>
<!DOCTYPE svg PUBLIC "-//W3C//DTD SVG 20010904//EN"
 "http://www.w3.org/TR/2001/REC-SVG-20010904/DTD/svg10.dtd">
<svg version="1.0" xmlns="http://www.w3.org/2000/svg"
 width="370.000000pt" height="370.000000pt" viewBox="0 0 370.000000 370.000000"
 preserveAspectRatio="xMidYMid meet">
<metadata>
Created by potrace 1.11, written by Peter Selinger 2001-2013
</metadata>
<g transform="translate(0.000000,370.000000) scale(0.100000,-0.100000)"
fill="#000000" stroke="none">
<path d="M690 3055 c-117 -31 -259 -145 -313 -251 -86 -171 -71 -384 39 -530
13 -17 20 -35 16 -39 -4 -5 -1 -5 6 -1 7 5 15 0 20 -13 4 -11 11 -20 15 -19 5
0 26 -16 48 -35 21 -20 39 -33 39 -31 0 3 12 -3 27 -14 16 -11 32 -20 36 -20
4 0 22 -6 40 -12 36 -14 64 -19 121 -22 33 -3 40 -7 41 -26 1 -12 -3 -21 -9
-19 -6 2 -10 13 -8 23 3 18 3 18 -13 -1 -13 -16 -16 -16 -11 -3 3 12 1 15 -10
11 -11 -4 -12 -9 -4 -18 9 -10 6 -16 -9 -25 -31 -16 -26 -33 22 -69 l42 -32
-37 34 c-21 19 -38 40 -38 48 1 10 6 8 16 -6 16 -20 16 -20 10 1 -10 33 14 46
44 24 21 -16 23 -21 12 -44 -12 -26 -7 -56 9 -56 5 0 9 5 9 10 0 6 -4 10 -10
10 -5 0 -10 5 -10 11 0 5 4 7 10 4 6 -4 7 1 3 12 -6 16 -5 16 10 4 9 -7 14
-17 11 -22 -3 -5 0 -9 6 -9 7 0 9 8 5 20 -6 20 9 29 18 10 3 -6 4 -5 3 2 -2 7
-13 12 -25 11 -14 -2 -21 3 -22 15 -2 21 -1 23 4 42 2 8 2 12 0 8 -9 -15 -22
-8 -20 11 1 16 8 19 34 17 18 -1 33 1 33 5 0 10 59 8 66 -2 3 -5 -8 -7 -25 -5
-19 2 -32 -2 -35 -11 -9 -22 -7 -30 3 -14 6 9 26 14 55 14 29 -1 46 3 45 11
-3 25 1 46 10 46 12 0 8 -54 -5 -71 -30 -37 -34 -57 -19 -91 11 -26 14 -29 15
-11 0 12 -4 25 -10 28 -5 3 -10 12 -10 18 1 7 8 3 18 -9 10 -11 23 -19 31 -16
8 3 5 8 -11 16 -15 8 -22 19 -20 32 5 26 9 29 25 16 8 -7 18 -7 27 -2 13 9 13
10 0 11 -8 1 -18 1 -21 1 -3 -1 -6 12 -6 29 0 16 4 29 9 29 5 0 6 -4 3 -10 -3
-5 -1 -10 5 -10 6 0 9 -4 5 -9 -3 -5 -1 -12 5 -16 6 -3 17 -20 26 -37 9 -16
11 -27 5 -24 -7 4 -8 1 -5 -8 3 -9 10 -14 14 -11 5 3 12 0 16 -6 5 -8 2 -10
-7 -5 -8 4 -6 1 4 -7 10 -8 19 -24 20 -35 0 -11 4 -19 8 -17 7 5 95 -165 92
-177 -2 -4 1 -8 6 -8 5 0 18 -19 30 -42 l20 -42 -45 -48 c-120 -129 -138 -316
-42 -463 17 -27 31 -54 29 -60 -1 -5 1 -7 5 -3 4 4 17 -4 30 -17 13 -14 26
-25 29 -25 3 0 18 -8 32 -17 37 -25 92 -44 131 -47 18 -2 35 -6 38 -9 3 -3 20
-1 37 4 30 8 30 7 13 -6 -11 -8 -15 -15 -9 -15 7 0 19 7 27 16 9 8 16 11 16 5
0 -6 7 -11 15 -11 18 0 19 -12 3 -28 -17 -17 -33 -15 -18 3 9 10 9 15 1 15 -6
0 -11 -5 -11 -11 0 -5 -6 -7 -12 -3 -7 4 -3 -4 10 -18 l23 -26 -31 3 c-23 2
-37 11 -56 38 -16 24 -29 34 -39 31 -8 -4 -15 -8 -15 -11 0 -3 6 -3 14 0 9 4
21 -5 31 -20 16 -24 16 -26 -6 -49 -22 -23 -35 -69 -17 -58 5 4 7 11 5 18 -6
16 39 61 47 47 4 -6 3 -11 -3 -11 -6 0 -15 -8 -20 -18 -7 -14 -6 -19 4 -19 7
0 11 7 7 15 -3 9 -1 13 5 9 6 -4 13 0 17 8 3 8 12 15 21 15 13 0 12 -4 -5 -22
-11 -12 -20 -25 -20 -29 0 -17 20 -18 36 -2 12 13 19 14 22 5 2 -6 11 -12 20
-12 13 0 11 4 -6 16 -21 15 -25 15 -43 -2 -10 -9 -19 -13 -19 -7 0 5 9 18 19
28 19 16 21 16 50 -4 18 -13 36 -19 48 -14 16 6 16 5 4 -10 -9 -11 -10 -17 -2
-17 6 0 11 4 11 10 0 5 7 7 15 4 8 -4 12 -11 8 -17 -4 -6 -1 -7 7 -2 10 6 10
11 -4 20 -15 11 -13 15 17 42 l34 30 -31 0 c-17 0 -25 -2 -18 -5 20 -6 14 -21
-8 -19 -24 2 -25 10 -6 30 10 9 30 13 58 11 34 -3 38 -2 20 6 -12 5 -28 8 -35
6 -6 -1 -9 -1 -4 1 4 3 5 9 1 14 -3 5 -21 -7 -40 -28 -25 -26 -31 -39 -22 -44
6 -4 16 -5 20 -3 4 3 8 1 8 -5 0 -18 -17 -21 -36 -7 -18 14 -18 15 1 50 10 19
21 33 24 31 2 -3 10 3 16 12 12 15 15 15 45 1 32 -15 34 -15 51 5 21 25 25 16
7 -13 -11 -16 -9 -22 7 -34 11 -8 22 -12 25 -9 3 2 -3 9 -13 14 -13 8 -15 14
-7 30 8 13 7 25 0 39 -13 24 -22 26 -18 4 5 -26 -26 -40 -55 -25 -21 11 -28
11 -51 -4 -15 -10 -29 -15 -32 -12 -4 3 8 15 26 25 19 12 27 23 21 26 -6 4
-11 2 -11 -5 0 -7 -3 -9 -7 -6 -3 4 -13 -2 -21 -14 -11 -17 -17 -18 -30 -7
-14 10 -15 10 -5 -1 12 -14 7 -41 -11 -53 -7 -5 -6 -8 2 -8 8 0 16 9 19 20 3
11 9 17 14 14 5 -3 2 -18 -8 -34 -14 -24 -14 -31 -4 -44 9 -10 9 -16 3 -16 -6
0 -15 8 -21 17 -5 10 -12 17 -15 16 -3 -2 -9 -3 -13 -2 -5 0 1 4 12 9 17 7 17
9 3 9 -23 1 -23 9 -1 34 17 18 17 19 -2 33 -19 14 -19 14 1 15 10 1 26 0 34
-1 8 -1 12 2 8 6 -7 6 21 22 79 46 4 2 18 13 32 26 13 12 28 22 33 22 5 0 6 4
3 10 -3 5 3 15 15 22 11 7 20 19 20 26 0 7 7 15 16 19 8 3 13 12 10 20 -4 9 1
17 11 20 10 2 26 15 36 29 23 30 15 31 -14 1 -20 -20 -21 -20 -15 -2 11 27 14
45 16 75 1 23 2 24 14 8 7 -10 16 -15 19 -11 11 10 8 23 -4 21 -6 -2 -16 5
-22 15 -17 25 2 34 87 42 39 4 78 9 86 10 8 1 47 6 85 9 39 4 81 9 95 11 22 3
92 11 175 21 82 9 172 16 188 16 9 0 16 2 13 6 -2 4 20 7 50 6 49 0 56 -3 78
-32 12 -17 26 -29 29 -25 4 3 7 1 7 -5 0 -7 7 -12 16 -12 8 0 12 -5 9 -11 -4
-6 -1 -9 6 -8 8 2 30 -1 49 -6 19 -5 54 -9 78 -9 39 -1 58 -16 31 -25 -7 -2
-9 1 -4 9 5 8 4 11 -3 6 -6 -4 -9 -13 -6 -20 7 -19 -34 -28 -45 -9 -7 13 -9
13 -15 -2 -3 -10 -4 -20 -1 -23 3 -3 5 0 5 7 0 7 5 9 12 5 7 -5 2 -15 -18 -32
-33 -28 -18 -20 42 20 50 34 68 54 59 68 -3 5 1 10 10 10 8 0 24 6 35 12 25
16 55 0 56 -30 1 -12 7 -29 15 -38 11 -14 9 -20 -19 -44 -31 -27 -47 -55 -17
-30 8 6 18 9 24 6 11 -7 71 47 71 63 0 7 -7 14 -15 17 -8 4 -12 10 -9 15 3 5
0 9 -6 9 -7 0 -9 -7 -6 -16 3 -9 6 -18 6 -20 0 -3 4 -2 10 1 5 3 10 1 10 -5 0
-15 -51 -62 -59 -54 -3 3 4 13 15 23 21 17 21 17 2 43 -18 26 -18 27 2 33 11
4 18 11 15 16 -4 5 1 9 10 9 10 0 13 -5 9 -12 -4 -7 -3 -8 5 -4 6 4 18 2 26
-4 11 -9 19 -9 28 -1 10 8 17 7 27 -2 12 -10 12 -9 1 5 -7 10 -17 15 -22 12
-5 -3 -9 0 -9 6 0 8 -9 10 -25 6 -20 -5 -23 -3 -19 11 4 11 3 14 -3 7 -13 -17
-40 -23 -52 -11 -14 14 -14 37 0 37 5 0 8 -4 4 -9 -9 -15 15 -25 28 -12 9 9 8
11 -3 6 -12 -4 -16 2 -18 22 -1 24 0 25 9 10 6 -9 14 -15 20 -12 5 4 9 1 9 -6
0 -8 5 -7 16 2 15 12 16 11 10 -9 -4 -12 -3 -22 2 -22 5 0 8 8 7 17 -2 27 -16
53 -27 53 -6 0 -6 -6 2 -14 9 -12 8 -15 -9 -13 -21 1 -31 37 -11 37 5 0 7 6 4
14 -3 7 1 20 8 27 21 22 16 135 -8 189 -51 112 -181 174 -297 142 -29 -8 -37
-8 -37 3 0 7 -3 15 -8 17 -18 8 -152 219 -146 230 4 6 3 8 -3 5 -6 -4 -19 5
-28 20 -14 21 -15 30 -6 45 14 22 14 31 1 23 -17 -11 -11 7 8 21 23 18 37 17
22 -1 -7 -9 -10 -18 -6 -22 3 -3 6 -1 6 5 0 7 5 12 11 12 6 0 9 -7 6 -14 -4
-10 -1 -13 9 -9 11 4 12 9 4 19 -6 7 -13 28 -15 48 -2 28 0 34 14 29 13 -4 14
-3 1 6 -8 5 -12 13 -9 16 9 9 40 -6 33 -16 -3 -5 3 -6 12 -2 16 6 15 8 -4 16
-12 6 -22 14 -22 19 0 5 5 6 10 3 6 -3 10 -1 10 4 0 15 -11 14 -32 -5 -16 -16
-18 -15 -24 0 -5 12 -10 14 -19 6 -9 -8 -15 -8 -20 0 -3 5 -2 10 3 10 9 0 19
23 28 65 3 10 8 22 13 25 5 3 8 20 6 38 -3 36 -2 36 28 21 21 -10 21 -10 3 5
-11 9 -24 16 -30 16 -6 0 -6 4 1 11 7 7 8 20 4 33 -5 11 -16 46 -26 77 -21 67
-69 131 -133 176 -187 134 -460 43 -529 -177 -20 -63 -28 -72 -63 -65 -14 2
-77 7 -140 10 -63 3 -133 8 -155 10 -22 2 -98 7 -170 10 -127 7 -171 18 -143
36 10 7 10 9 1 9 -8 0 -11 11 -9 30 2 17 0 30 -4 30 -4 0 -11 15 -14 34 -21
111 -142 263 -254 320 -107 54 -250 70 -362 41z m900 -559 c36 -3 119 -8 185
-12 66 -3 131 -7 145 -9 14 -1 33 -3 42 -3 12 -1 19 -14 23 -39 4 -21 13 -55
21 -75 7 -21 10 -38 6 -38 -4 0 -2 -4 4 -8 5 -4 26 -28 46 -54 19 -26 38 -45
42 -41 3 3 6 -1 6 -10 0 -9 5 -19 12 -23 7 -5 8 -3 3 6 -6 9 -4 11 4 6 7 -5
10 -15 6 -25 -5 -12 -3 -13 5 -5 12 12 65 -9 94 -39 9 -8 21 -17 28 -20 7 -2
10 -8 6 -12 -4 -4 -14 -2 -23 5 -8 7 -15 9 -15 5 0 -10 43 -44 58 -45 6 0 12
-4 12 -10 0 -5 9 -14 20 -20 16 -9 18 -8 14 5 -3 8 -10 12 -15 9 -15 -9 -10
12 5 25 17 14 28 51 15 51 -5 0 -9 -8 -9 -18 0 -25 -18 -41 -41 -35 -13 4 -18
11 -14 23 4 12 -2 24 -17 35 l-23 17 25 -7 c35 -11 51 -30 37 -44 -8 -8 -8
-11 0 -11 15 0 23 26 12 37 -7 7 9 10 43 11 62 2 76 4 103 19 11 5 26 8 34 5
8 -3 11 0 7 7 -10 16 7 14 30 -5 14 -11 15 -14 3 -11 -9 3 -22 1 -30 -4 -15
-9 -16 -9 36 -13 14 -1 19 -7 17 -21 -2 -11 -1 -17 4 -13 11 12 34 -11 27 -28
-3 -8 1 -14 10 -14 17 0 30 -27 20 -42 -3 -6 -1 -8 4 -5 12 7 28 -13 115 -139
40 -57 54 -85 47 -95 -5 -8 -9 -10 -9 -5 0 13 -56 -67 -64 -92 -9 -26 -12 -26
-68 -8 -24 8 -59 19 -78 24 -19 6 -87 27 -150 47 -63 20 -122 38 -130 40 -8 2
-39 12 -67 22 -51 17 -53 19 -47 49 7 39 -8 96 -37 138 -68 100 -217 115 -302
30 l-36 -36 -93 58 c-51 33 -95 59 -98 58 -3 0 -9 4 -15 8 -5 5 -46 32 -90 61
-44 28 -82 54 -85 58 -3 3 -13 8 -23 12 -10 4 -16 11 -12 17 3 5 -3 15 -14 21
-22 15 -17 40 7 32 15 -4 15 -3 2 6 -12 9 -12 13 -2 19 12 8 7 42 -7 42 -10 0
-33 -17 -32 -24 3 -19 0 -26 -10 -26 -6 0 -9 6 -6 14 3 8 -1 20 -9 26 -10 9
-14 9 -14 1 0 -6 -4 -11 -10 -11 -5 0 -1 16 10 36 11 19 18 39 15 45 -4 5 2 9
12 9 12 0 14 3 6 8 -7 4 -10 16 -8 27 2 11 4 23 4 26 1 7 165 4 271 -5z m-238
-175 c-9 -16 -21 -27 -27 -24 -5 2 4 -7 20 -21 38 -32 25 -34 -20 -3 -19 13
-32 27 -27 32 4 4 -1 5 -10 2 -25 -9 -34 14 -13 30 24 17 41 17 26 -1 -9 -11
-8 -15 6 -20 17 -7 43 16 43 37 0 4 4 6 9 2 6 -3 3 -18 -7 -34z m1324 -84 c2
-22 -1 -35 -7 -32 -5 4 -6 12 -2 18 4 8 1 7 -9 -1 -14 -11 -18 -10 -30 7 -8
12 -18 18 -21 14 -4 -3 -7 -2 -7 3 0 18 23 33 48 31 23 -2 26 -7 28 -40z
m-1419 14 c21 -20 24 -62 5 -69 -7 -2 -10 2 -9 10 2 7 2 10 0 6 -9 -17 -20 -7
-20 17 0 26 12 34 20 13 4 -10 6 -10 6 -1 1 16 -14 24 -33 17 -9 -3 -13 -11
-9 -17 4 -7 8 -20 8 -29 1 -14 -4 -17 -28 -13 -26 5 -28 4 -13 -10 12 -12 20
-14 36 -5 14 7 26 8 39 0 25 -13 24 -13 49 9 12 10 19 21 15 24 -3 4 -12 -2
-20 -13 -8 -11 -19 -20 -25 -20 -7 0 -7 4 1 13 6 8 9 24 6 38 -4 23 -4 23 10
5 8 -11 15 -17 15 -13 0 8 43 -18 267 -160 72 -46 134 -83 138 -83 21 0 50
-45 51 -78 2 -78 5 -90 32 -130 24 -36 126 -124 107 -91 -6 8 -4 10 6 3 8 -5
23 -7 34 -5 19 3 19 2 -2 -19 -29 -26 -30 -40 -2 -14 21 19 21 18 40 -5 24
-29 24 -42 2 -34 -17 7 -17 6 0 -11 22 -22 23 -43 1 -25 -15 12 -52 24 -41 12
3 -2 8 -3 11 -1 10 6 86 -84 79 -94 -3 -7 -1 -8 6 -4 8 5 5 16 -9 37 -12 16
-19 29 -15 29 3 0 1 9 -5 20 -8 14 -8 26 1 41 8 15 8 19 0 15 -6 -4 -11 -5
-11 -2 0 2 -3 13 -7 23 -6 15 -4 16 8 6 12 -10 17 -8 28 9 7 11 8 17 2 13 -6
-3 -11 -1 -11 4 0 6 4 11 9 11 16 0 23 -20 13 -33 -17 -22 -18 -117 0 -117 11
0 10 28 -2 35 -5 3 -10 12 -10 18 1 7 9 2 19 -10 10 -12 21 -19 25 -16 3 4 6
1 6 -5 0 -7 -6 -12 -12 -13 -10 0 -10 -2 0 -6 6 -2 10 -8 7 -13 -3 -5 3 -7 12
-6 9 2 18 8 19 15 1 6 0 7 -3 1 -7 -15 -23 -2 -17 14 3 7 -6 20 -19 29 -19 12
-23 22 -20 44 3 15 5 38 5 51 0 18 3 20 14 12 15 -13 34 -5 34 15 0 7 6 20 13
27 7 7 14 18 15 23 1 6 7 10 12 9 6 -1 19 -2 31 -2 13 -1 18 -6 13 -14 -6 -10
-4 -10 8 0 13 10 17 10 21 -3 4 -8 12 -12 20 -10 7 3 32 -1 56 -10 24 -8 47
-13 51 -10 5 3 10 2 12 -3 2 -6 158 -57 233 -76 71 -18 95 -31 96 -50 1 -23 5
-47 13 -82 6 -23 -6 -27 -33 -10 -10 6 -12 5 -7 -2 5 -8 -4 -12 -26 -13 -18 0
-42 -3 -53 -5 -11 -2 -38 -6 -60 -8 -64 -6 -179 -18 -195 -22 -8 -1 -32 -3
-53 -3 -21 -1 -36 -4 -34 -8 3 -5 -14 -8 -36 -7 -23 0 -86 -4 -140 -11 -165
-19 -164 -20 -192 49 -59 145 -189 237 -339 240 -66 1 -176 -21 -176 -36 0
-18 -17 2 -41 49 -13 26 -27 51 -32 54 -4 3 -9 16 -10 27 -1 12 -4 22 -7 22
-3 0 -24 35 -45 78 -22 42 -42 79 -45 82 -3 3 -7 14 -8 24 -3 17 -2 18 12 7 9
-8 16 -9 16 -3 0 5 -7 13 -16 16 -8 3 -12 10 -9 16 3 5 1 10 -5 10 -7 0 -10
-7 -6 -15 3 -8 1 -15 -4 -15 -6 0 -10 9 -10 20 0 10 -8 24 -17 29 -10 6 -13
11 -5 11 7 0 21 -5 32 -12 15 -10 22 -9 38 5 17 16 20 16 25 2 4 -8 14 -15 24
-14 13 0 14 2 4 6 -40 16 -66 72 -34 74 10 1 25 2 33 3 8 1 23 -2 33 -7 14 -6
24 -3 38 12 24 26 24 34 0 19 -11 -7 -17 -16 -15 -20 8 -13 -5 -9 -31 8 -18
11 -29 13 -43 5 -11 -6 -21 -9 -23 -7 -2 2 -12 -7 -22 -20 -12 -17 -14 -22 -4
-18 10 3 14 -2 13 -18 -1 -26 -36 -33 -44 -8 -5 13 -3 13 11 1 10 -7 17 -9 17
-3 0 5 -7 13 -16 16 -8 3 -12 10 -9 16 3 5 1 10 -5 10 -7 0 -10 -7 -7 -15 8
-19 -12 -30 -26 -15 -9 10 -9 11 2 5 10 -6 12 -4 7 4 -11 17 11 40 33 34 17
-4 38 23 26 35 -3 3 -5 0 -5 -7 0 -7 -5 -9 -10 -6 -6 4 -7 11 -4 17 4 7 2 8
-5 4 -9 -6 -9 -11 0 -22 9 -10 9 -14 0 -14 -30 0 -19 32 26 78 26 27 51 50 54
51 3 0 14 -8 26 -18z m1373 -36 c7 -8 16 -12 21 -9 5 3 9 1 9 -5 0 -6 -9 -15
-20 -21 -15 -8 -19 -17 -15 -31 4 -10 3 -19 0 -19 -10 0 -35 27 -35 38 0 5 -7
15 -15 22 -12 10 -13 16 -4 26 15 18 43 18 59 -1z m-1500 -70 c0 -1 -8 -10
-19 -19 -17 -15 -19 -15 -25 -1 -3 9 -2 13 4 10 6 -3 10 1 10 9 0 10 6 13 15
10 8 -4 15 -7 15 -9z m-133 -65 c-1 -11 -5 -20 -9 -20 -11 0 -20 19 -13 30 11
17 24 11 22 -10z m1089 -397 c-10 -10 -19 5 -10 18 6 11 8 11 12 0 2 -7 1 -15
-2 -18z m-72 -22 c3 -5 -6 -8 -19 -8 -14 0 -25 3 -25 8 0 5 9 9 19 9 11 0 22
-4 25 -9z m1083 -288 c-4 -3 2 -12 13 -20 11 -8 20 -19 20 -25 0 -6 -11 -1
-25 12 -21 20 -25 40 -8 40 4 0 3 -3 0 -7z m118 -43 c3 -5 2 -10 -4 -10 -5 0
-13 5 -16 10 -3 6 -2 10 4 10 5 0 13 -4 16 -10z"/>
<path d="M1357 2476 c-4 -10 -13 -13 -24 -9 -15 6 -16 5 -3 -9 13 -14 16 -14
28 4 8 11 12 21 9 24 -2 3 -7 -2 -10 -10z"/>
<path d="M1375 2459 c-4 -6 -4 -13 -1 -16 3 -4 6 -1 6 7 0 10 4 10 18 -1 15
-13 16 -12 3 4 -16 20 -18 20 -26 6z"/>
<path d="M1324 2421 c3 -5 -1 -14 -9 -21 -8 -7 -12 -16 -9 -21 10 -16 33 -9
44 14 10 20 10 20 -3 5 -8 -10 -20 -18 -26 -18 -8 0 -7 5 3 16 18 18 21 34 5
34 -5 0 -8 -4 -5 -9z"/>
<path d="M1367 2410 c14 -17 33 -19 33 -4 0 3 -5 2 -12 -2 -7 -5 -9 -2 -6 7 4
10 -1 15 -12 16 -17 2 -17 0 -3 -17z"/>
<path d="M1395 2380 c-17 -8 -17 -9 7 -7 15 1 24 5 22 9 -3 4 -6 8 -7 7 -1 0
-11 -4 -22 -9z"/>
<path d="M1755 2331 c-3 -5 -2 -12 3 -15 5 -3 9 1 9 9 0 17 -3 19 -12 6z"/>
<path d="M1391 2318 c3 -28 -1 -39 -13 -32 -7 4 -9 3 -5 -1 17 -19 32 -11 32
16 1 16 -3 29 -8 29 -4 0 -7 -6 -6 -12z"/>
<path d="M1453 2315 c0 -8 4 -12 9 -9 5 3 6 10 3 15 -9 13 -12 11 -12 -6z"/>
<path d="M2150 2160 c0 -5 5 -10 11 -10 5 0 7 5 4 10 -3 6 -8 10 -11 10 -2 0
-4 -4 -4 -10z"/>
<path d="M2130 2140 c0 -5 5 -10 11 -10 5 0 7 5 4 10 -3 6 -8 10 -11 10 -2 0
-4 -4 -4 -10z"/>
<path d="M2175 2140 c-3 -5 -3 -10 2 -11 4 0 -1 -4 -12 -9 -15 -7 -16 -9 -4
-9 21 -1 44 25 30 33 -5 4 -12 2 -16 -4z"/>
<path d="M2447 2126 c-4 -10 -13 -13 -24 -10 -15 5 -15 4 -3 -5 8 -5 11 -13 7
-17 -4 -4 -17 1 -29 12 -23 19 -23 19 -5 -2 21 -25 23 -41 2 -24 -9 7 -15 8
-15 2 0 -5 7 -12 15 -16 15 -5 73 59 63 70 -3 3 -8 -2 -11 -10z"/>
<path d="M2202 2114 c-7 -8 -8 -14 -3 -14 10 0 25 19 20 25 -2 1 -10 -3 -17
-11z"/>
<path d="M2452 2094 c-26 -40 -27 -48 -7 -64 13 -11 13 -14 -2 -26 -15 -10
-16 -15 -5 -26 11 -11 12 -10 6 6 -5 13 -4 17 3 13 19 -12 24 25 6 39 -17 12
-17 14 -1 41 9 15 22 29 29 32 7 2 4 -9 -8 -24 l-21 -29 22 -17 c17 -14 19
-20 9 -30 -7 -7 -13 -17 -13 -23 0 -5 6 -2 13 8 11 15 17 16 35 7 14 -7 23 -8
27 -1 8 13 -3 30 -18 30 -7 0 -6 -4 3 -10 8 -5 12 -11 9 -14 -7 -7 -69 44 -69
56 0 5 12 1 28 -9 15 -9 24 -13 20 -9 -4 5 3 17 15 27 13 11 17 18 9 19 -7 0
-10 5 -7 10 3 6 1 10 -5 10 -7 0 -9 -8 -5 -20 6 -19 -8 -29 -18 -12 -2 4 -2 1
-1 -5 4 -15 -12 -17 -21 -4 -3 5 1 16 9 23 12 13 12 16 -3 25 -14 9 -21 4 -39
-23z"/>
<path d="M2353 2089 c-8 -21 -9 -38 -3 -50 8 -14 6 -20 -7 -28 -10 -5 -16 -12
-13 -14 3 -3 14 1 25 9 16 12 18 18 7 34 -19 31 -13 37 9 10 12 -14 23 -24 25
-22 10 6 24 1 24 -9 0 -6 -9 -8 -22 -4 -23 7 -23 7 -3 -8 16 -13 21 -13 28 -2
8 15 -1 47 -12 40 -4 -2 -17 2 -28 10 -14 10 -19 22 -16 40 7 34 0 31 -14 -6z"/>
<path d="M2188 2083 c6 -2 18 -2 25 0 6 3 1 5 -13 5 -14 0 -19 -2 -12 -5z"/>
<path d="M2548 2066 c-15 -20 -15 -25 -3 -30 10 -3 12 0 8 11 -4 9 -2 14 3 10
6 -3 11 3 11 14 2 24 2 24 -19 -5z"/>
<path d="M2230 2071 c0 -5 5 -13 10 -16 6 -3 10 -2 10 4 0 5 -4 13 -10 16 -5
3 -10 2 -10 -4z"/>
<path d="M2190 2056 c7 -7 13 -7 20 0 6 6 3 10 -10 10 -13 0 -16 -4 -10 -10z"/>
<path d="M2217 2043 c-10 -9 13 -33 32 -32 10 0 8 3 -7 10 -13 5 -20 13 -17
19 7 11 2 13 -8 3z"/>
<path d="M2255 2040 c-8 -13 5 -13 25 0 13 8 13 10 -2 10 -9 0 -20 -4 -23 -10z"/>
<path d="M2570 2031 c0 -17 21 -24 33 -12 9 9 7 10 -7 5 -13 -5 -17 -4 -12 4
4 7 2 12 -3 12 -6 0 -11 -4 -11 -9z"/>
<path d="M2275 2013 c-5 -14 -3 -15 6 -6 6 6 19 9 28 6 14 -4 14 -3 1 6 -21
15 -27 14 -35 -6z"/>
<path d="M2556 1993 c-6 -14 -5 -15 5 -6 7 7 10 15 7 18 -3 3 -9 -2 -12 -12z"/>
<path d="M2294 1975 c0 -13 4 -21 8 -19 5 3 5 10 2 16 -5 7 -1 9 9 5 23 -9 22
0 -1 12 -15 8 -18 6 -18 -14z"/>
<path d="M2370 1989 c0 -5 -5 -7 -12 -3 -7 4 -8 3 -4 -5 6 -9 11 -9 22 0 17
14 18 19 4 19 -5 0 -10 -5 -10 -11z"/>
<path d="M2513 1977 c15 -7 24 -17 20 -22 -5 -4 -2 -5 5 0 17 9 5 21 -28 29
-23 5 -23 5 3 -7z"/>
<path d="M2576 1982 c-2 -4 6 -7 20 -7 32 2 39 10 9 13 -13 1 -26 -2 -29 -6z"/>
<path d="M2387 1967 c-3 -8 1 -14 9 -14 7 0 10 5 7 10 -4 6 1 8 11 4 10 -4 15
-3 11 3 -9 14 -32 12 -38 -3z"/>
<path d="M2455 1959 c-4 -6 -5 -12 -2 -15 2 -3 7 2 10 11 7 17 1 20 -8 4z"/>
<path d="M2480 1966 c0 -2 7 -7 16 -10 8 -3 12 -2 9 4 -6 10 -25 14 -25 6z"/>
<path d="M2630 2252 c6 -13 14 -21 18 -18 3 4 -2 14 -12 24 -18 16 -18 16 -6
-6z"/>
<path d="M1190 2210 c-13 -8 -12 -10 3 -10 9 0 17 5 17 10 0 12 -1 12 -20 0z"/>
<path d="M1341 2174 c0 -11 3 -14 6 -6 3 7 2 16 -1 19 -3 4 -6 -2 -5 -13z"/>
<path d="M1346 2138 c3 -5 10 -6 15 -3 13 9 11 12 -6 12 -8 0 -12 -4 -9 -9z"/>
<path d="M1314 2115 c-4 -8 -9 -13 -13 -11 -4 3 -13 1 -21 -4 -12 -8 -13 -11
-2 -22 8 -7 13 -8 12 -3 -5 22 1 29 10 15 7 -11 10 -11 10 -2 0 7 4 10 10 7 6
-4 7 1 3 11 -5 13 -3 15 7 9 9 -5 11 -4 6 3 -10 16 -15 15 -22 -3z"/>
<path d="M1221 2096 c6 -13 21 -27 33 -29 20 -5 20 -5 -1 10 -13 8 -23 22 -23
29 0 8 -4 14 -10 14 -6 0 -5 -9 1 -24z"/>
<path d="M1250 2105 c0 -8 2 -15 4 -15 2 0 6 7 10 15 3 8 1 15 -4 15 -6 0 -10
-7 -10 -15z"/>
<path d="M1185 2040 c-4 -6 -4 -14 -1 -17 3 -4 6 -1 6 5 0 7 5 12 11 12 6 0 9
-6 6 -14 -3 -8 0 -17 8 -20 11 -4 12 0 6 16 -9 26 -26 34 -36 18z"/>
<path d="M1268 2043 c7 -3 16 -2 19 1 4 3 -2 6 -13 5 -11 0 -14 -3 -6 -6z"/>
<path d="M1486 2018 c3 -5 10 -6 15 -3 13 9 11 12 -6 12 -8 0 -12 -4 -9 -9z"/>
<path d="M1197 1983 c-10 -9 -9 -23 1 -23 5 0 9 7 9 15 0 17 -1 18 -10 8z"/>
<path d="M2137 1744 c8 -4 4 -17 -13 -41 -14 -21 -22 -44 -19 -52 11 -27 10
-33 -3 -38 -7 -3 -12 -1 -11 4 5 31 -14 46 -24 19 -4 -11 -1 -13 11 -9 9 3 14
2 9 -2 -8 -10 21 -45 37 -45 6 0 19 -12 28 -27 10 -16 18 -23 18 -16 0 6 -4
15 -10 18 -5 3 -10 11 -10 17 0 6 9 3 20 -7 11 -10 20 -13 20 -8 0 6 -8 14
-17 18 -17 6 -17 7 0 20 12 9 15 15 7 20 -8 5 -6 13 6 26 16 18 16 20 0 38
-16 17 -15 19 6 35 23 17 23 17 -3 2 -26 -14 -39 -12 -39 6 0 5 5 6 10 3 6 -3
10 -2 10 3 0 6 -7 13 -16 16 -18 7 -35 7 -17 0z m23 -49 c7 -9 10 -19 6 -22
-4 -4 -12 -1 -17 7 -9 13 -10 13 -6 0 2 -8 14 -14 26 -13 25 3 26 -3 6 -24 -8
-8 -13 -19 -9 -24 9 -16 -15 -37 -36 -32 -23 6 -25 14 -8 31 8 8 8 15 0 25 -9
10 -9 20 1 40 14 31 20 33 37 12z"/>
<path d="M2130 1654 c8 -10 15 -20 16 -22 1 -2 4 1 7 5 3 5 -4 15 -16 23 -21
12 -21 12 -7 -6z"/>
<path d="M2135 1610 c-3 -5 -1 -10 4 -10 6 0 11 5 11 10 0 6 -2 10 -4 10 -3 0
-8 -4 -11 -10z"/>
<path d="M2203 1703 c-10 -3 -9 -8 2 -19 8 -8 12 -22 9 -32 -5 -14 -4 -14 4
-3 7 10 7 21 0 34 -9 17 -8 19 6 14 10 -4 15 -3 11 3 -7 11 -13 11 -32 3z"/>
<path d="M2246 1682 c-3 -5 1 -9 9 -9 8 0 12 4 9 9 -3 4 -7 8 -9 8 -2 0 -6 -4
-9 -8z"/>
<path d="M1886 1618 c3 -5 10 -6 15 -3 13 9 11 12 -6 12 -8 0 -12 -4 -9 -9z"/>
<path d="M1955 1620 c3 -5 11 -10 16 -10 6 0 7 5 4 10 -3 6 -11 10 -16 10 -6
0 -7 -4 -4 -10z"/>
<path d="M2196 1615 c4 -8 8 -15 10 -15 2 0 4 7 4 15 0 8 -4 15 -10 15 -5 0
-7 -7 -4 -15z"/>
<path d="M2220 1626 c0 -2 7 -6 15 -10 8 -3 15 -1 15 4 0 6 -7 10 -15 10 -8 0
-15 -2 -15 -4z"/>
<path d="M1900 1600 c-9 -6 -10 -10 -3 -10 6 0 15 5 18 10 8 12 4 12 -15 0z"/>
<path d="M1935 1600 c3 -5 11 -10 16 -10 6 0 7 5 4 10 -3 6 -11 10 -16 10 -6
0 -7 -4 -4 -10z"/>
<path d="M2060 1607 c0 -3 11 -17 24 -30 16 -16 29 -21 38 -16 11 7 10 9 -1 9
-8 0 -25 10 -38 22 -13 12 -23 19 -23 15z"/>
<path d="M1915 1580 c-3 -5 -1 -10 4 -10 6 0 11 5 11 10 0 6 -2 10 -4 10 -3 0
-8 -4 -11 -10z"/>
<path d="M2180 1585 c0 -8 29 -12 39 -5 9 5 4 8 -13 8 -14 0 -26 -2 -26 -3z"/>
<path d="M2230 1556 c4 -4 16 -4 26 2 16 9 14 10 -8 9 -15 -1 -23 -6 -18 -11z"/>
<path d="M1933 1545 c0 -8 4 -12 9 -9 5 3 6 10 3 15 -9 13 -12 11 -12 -6z"/>
<path d="M2120 1542 c0 -5 7 -9 15 -9 8 0 12 4 9 9 -3 4 -9 8 -15 8 -5 0 -9
-4 -9 -8z"/>
<path d="M1955 1531 c-3 -5 -2 -12 3 -15 5 -3 9 1 9 9 0 17 -3 19 -12 6z"/>
<path d="M2050 1511 c0 -6 4 -13 10 -16 6 -3 7 1 4 9 -7 18 -14 21 -14 7z"/>
<path d="M2133 1507 c0 -8 6 -14 14 -14 9 0 10 4 2 14 -6 7 -12 13 -14 13 -1
0 -2 -6 -2 -13z"/>
<path d="M2093 1485 c0 -8 4 -12 9 -9 5 3 6 10 3 15 -9 13 -12 11 -12 -6z"/>
<path d="M2576 2211 c-4 -5 3 -7 14 -4 23 6 26 13 6 13 -8 0 -17 -4 -20 -9z"/>
<path d="M2597 2180 c3 -11 7 -20 9 -20 2 0 4 9 4 20 0 11 -4 20 -9 20 -5 0
-7 -9 -4 -20z"/>
<path d="M1356 2587 c3 -10 9 -15 12 -12 3 3 0 11 -7 18 -10 9 -11 8 -5 -6z"/>
<path d="M2735 2400 c3 -5 8 -10 11 -10 2 0 4 5 4 10 0 6 -5 10 -11 10 -5 0
-7 -4 -4 -10z"/>
<path d="M2700 2380 c0 -5 7 -7 15 -4 8 4 15 8 15 10 0 2 -7 4 -15 4 -8 0 -15
-4 -15 -10z"/>
<path d="M2676 2363 c-6 -14 -5 -15 5 -6 7 7 10 15 7 18 -3 3 -9 -2 -12 -12z"/>
<path d="M2693 2348 c-18 -13 -33 -27 -33 -31 0 -5 4 -6 9 -2 5 3 11 0 14 -7
2 -7 3 -5 1 5 -1 12 9 25 29 38 18 10 27 19 22 19 -6 0 -25 -10 -42 -22z"/>
<path d="M2737 2333 c6 -15 4 -16 -9 -5 -12 9 -18 10 -23 2 -4 -6 -4 -14 -1
-17 3 -4 6 -1 6 7 0 9 3 10 13 1 8 -6 17 -8 20 -4 10 10 8 33 -3 33 -5 0 -6
-8 -3 -17z"/>
<path d="M2747 2291 c-3 -13 0 -18 7 -15 7 3 13 11 13 19 0 22 -14 18 -20 -4z"/>
<path d="M2735 2231 c-3 -5 -2 -12 3 -15 5 -3 9 1 9 9 0 17 -3 19 -12 6z"/>
<path d="M2700 2199 c0 -12 40 -18 47 -7 3 7 1 8 -5 4 -7 -4 -12 -3 -12 2 0 5
-7 9 -15 9 -8 0 -15 -4 -15 -8z"/>
<path d="M486 2180 c6 -8 10 -25 9 -38 -1 -13 3 -26 9 -29 6 -3 8 -3 4 2 -4 4
-3 14 3 22 9 10 8 13 0 13 -7 0 -10 4 -7 9 3 5 -2 15 -12 22 -15 12 -16 12 -6
-1z"/>
<path d="M2712 2142 c-9 -6 -5 -12 15 -20 24 -11 26 -10 11 1 -10 8 -15 17
-11 20 9 9 1 8 -15 -1z"/>
<path d="M2655 2130 c-3 -5 -1 -10 4 -10 6 0 11 5 11 10 0 6 -2 10 -4 10 -3 0
-8 -4 -11 -10z"/>
<path d="M553 2115 c-3 -9 -3 -19 1 -22 3 -4 6 1 6 11 0 10 5 14 12 10 7 -4 8
-3 4 4 -10 16 -15 15 -23 -3z"/>
<path d="M2677 2116 c-4 -10 -13 -13 -24 -9 -15 6 -16 5 -3 -9 13 -14 16 -14
28 4 8 11 12 21 9 24 -2 3 -7 -2 -10 -10z"/>
<path d="M596 2097 c3 -10 9 -15 12 -12 3 3 0 11 -7 18 -10 9 -11 8 -5 -6z"/>
<path d="M2695 2099 c-4 -6 -4 -13 -1 -16 3 -4 6 -1 6 6 0 7 5 9 10 6 6 -3 10
-1 10 4 0 14 -17 14 -25 0z"/>
<path d="M570 2091 c0 -5 5 -13 10 -16 6 -3 10 -2 10 4 0 5 -4 13 -10 16 -5 3
-10 2 -10 -4z"/>
<path d="M533 2075 c0 -8 4 -12 9 -9 5 3 6 10 3 15 -9 13 -12 11 -12 -6z"/>
<path d="M620 2078 c0 -4 4 -8 9 -8 6 0 12 4 15 8 3 5 -1 9 -9 9 -8 0 -15 -4
-15 -9z"/>
<path d="M646 2065 c-11 -8 -16 -15 -10 -15 5 0 18 7 28 15 11 8 16 15 10 15
-5 0 -18 -7 -28 -15z"/>
<path d="M590 2060 c-11 -7 -11 -10 -2 -10 7 0 10 -4 7 -10 -4 -6 1 -7 11 -3
11 4 13 8 6 11 -7 2 -10 8 -6 13 7 11 3 11 -16 -1z"/>
<path d="M706 2058 c4 -5 0 -9 -7 -7 -26 3 -39 -1 -39 -12 0 -8 5 -8 15 1 10
8 15 9 15 1 0 -6 -9 -16 -20 -23 -11 -7 -20 -17 -20 -22 0 -4 7 -3 15 4 10 8
15 9 15 2 0 -6 -8 -16 -17 -21 -10 -6 -13 -11 -7 -11 14 0 35 24 38 42 4 27
18 39 38 32 18 -5 19 -4 7 8 -14 16 -42 20 -33 6z"/>
<path d="M873 2040 c1 -11 5 -20 9 -20 3 0 6 9 5 20 -1 11 -5 20 -9 20 -3 0
-6 -9 -5 -20z"/>
<path d="M630 2030 c0 -5 5 -10 10 -10 6 0 10 5 10 10 0 6 -4 10 -10 10 -5 0
-10 -4 -10 -10z"/>
<path d="M925 2031 c-3 -6 0 -8 8 -5 10 3 14 -2 13 -18 -1 -26 -36 -33 -44 -8
-5 13 -3 13 11 1 10 -7 17 -9 17 -3 0 14 -28 23 -35 12 -3 -5 -12 -7 -20 -3
-8 3 -15 -1 -15 -8 0 -7 3 -9 7 -6 3 4 17 0 31 -9 20 -13 29 -14 47 -4 24 13
52 60 35 60 -6 0 -10 -7 -10 -15 0 -8 -4 -15 -10 -15 -5 0 -9 5 -7 11 3 15
-19 23 -28 10z"/>
<path d="M600 2020 c-9 -6 -10 -10 -3 -10 6 0 15 5 18 10 8 12 4 12 -15 0z"/>
<path d="M717 2023 c9 -3 6 -11 -7 -26 -31 -33 -15 -32 18 1 l29 30 -26 -1
c-14 0 -21 -2 -14 -4z"/>
<path d="M790 2000 c0 -5 5 -10 10 -10 6 0 10 -5 10 -11 0 -5 -4 -7 -10 -4 -5
3 -10 2 -10 -4 0 -18 16 -20 27 -2 9 14 7 20 -8 29 -12 8 -19 8 -19 2z"/>
<path d="M1020 2001 c0 -5 7 -11 15 -15 8 -3 15 -1 15 3 0 5 -7 11 -15 15 -8
3 -15 1 -15 -3z"/>
<path d="M1060 1999 c0 -5 5 -7 10 -4 6 3 10 8 10 11 0 2 -4 4 -10 4 -5 0 -10
-5 -10 -11z"/>
<path d="M712 1964 c-7 -8 -8 -14 -3 -14 10 0 25 19 20 25 -2 1 -10 -3 -17
-11z"/>
<path d="M1060 1973 c0 -7 5 -15 10 -18 6 -4 8 -11 5 -16 -4 -5 -1 -9 4 -9 15
0 13 11 -4 34 -8 11 -15 15 -15 9z"/>
<path d="M942 1963 c-6 -2 -10 -9 -6 -14 3 -5 1 -9 -5 -9 -5 0 -12 5 -14 10
-3 6 -4 5 -3 -2 1 -7 12 -14 24 -14 12 -1 28 -7 37 -14 10 -8 15 -9 15 -1 0 6
-4 11 -10 11 -5 0 -9 3 -9 8 5 29 -3 36 -29 25z m23 -13 c3 -5 1 -10 -4 -10
-6 0 -11 5 -11 10 0 6 2 10 4 10 3 0 8 -4 11 -10z"/>
<path d="M725 1940 c-3 -6 1 -7 9 -4 18 7 21 14 7 14 -6 0 -13 -4 -16 -10z"/>
<path d="M1035 1939 c-11 -16 -1 -19 13 -3 7 8 8 14 3 14 -5 0 -13 -5 -16 -11z"/>
<path d="M893 1933 c4 -6 -5 -15 -18 -21 -16 -7 -23 -17 -19 -27 3 -8 8 -15
11 -15 3 0 3 7 -1 15 -3 8 -2 15 2 15 5 0 16 6 27 13 14 11 15 16 5 22 -8 5
-11 4 -7 -2z"/>
<path d="M695 1920 c-3 -5 -1 -10 4 -10 6 0 11 5 11 10 0 6 -2 10 -4 10 -3 0
-8 -4 -11 -10z"/>
<path d="M740 1926 c0 -2 11 -6 25 -8 13 -3 22 -1 19 3 -5 9 -44 13 -44 5z"/>
<path d="M915 1909 c-4 -6 -5 -12 -2 -15 2 -3 7 2 10 11 7 17 1 20 -8 4z"/>
<path d="M944 1908 c3 -15 26 -23 26 -8 0 6 -4 9 -9 6 -5 -4 -12 -1 -14 4 -3
6 -4 5 -3 -2z"/>
<path d="M1010 1902 c0 -5 7 -9 15 -9 8 0 12 4 9 9 -3 4 -9 8 -15 8 -5 0 -9
-4 -9 -8z"/>
<path d="M3201 1521 c-9 -6 -10 -11 -2 -15 6 -4 11 -2 11 4 0 6 5 8 12 4 7 -4
8 -3 4 4 -8 14 -7 14 -25 3z"/>
<path d="M3180 1470 c-15 -10 -10 -20 12 -24 7 -1 22 -7 34 -13 16 -10 21 -9
21 2 0 8 -7 11 -16 7 -14 -5 -14 -4 -1 13 13 17 13 18 0 10 -25 -15 -42 -15
-36 1 6 16 6 17 -14 4z"/>
<path d="M3204 1422 c13 -21 41 -31 57 -20 12 8 11 9 -2 5 -9 -3 -27 2 -40 10
-12 9 -19 11 -15 5z"/>
<path d="M3220 1376 c0 -8 4 -17 9 -20 5 -4 7 3 4 14 -6 23 -13 26 -13 6z"/>
<path d="M3051 1331 c-8 -5 -9 -11 -3 -15 5 -3 12 1 16 9 6 17 6 18 -13 6z"/>
<path d="M1906 1322 c-3 -5 1 -9 9 -9 8 0 12 4 9 9 -3 4 -7 8 -9 8 -2 0 -6 -4
-9 -8z"/>
<path d="M3068 1303 c-14 -29 -29 -34 -37 -12 -2 8 1 9 10 3 12 -7 12 -5 0 9
-14 18 -26 23 -16 8 3 -5 1 -12 -4 -16 -5 -3 1 -17 15 -30 26 -27 44 -34 25
-11 -9 11 -6 14 14 14 26 0 34 -13 13 -21 -10 -4 -10 -6 -1 -6 16 -1 24 14 17
33 -5 13 -9 14 -20 5 -17 -14 -18 -5 -3 23 6 11 8 22 6 25 -3 2 -11 -8 -19
-24z"/>
<path d="M2835 1313 c11 -3 24 -9 29 -14 13 -12 17 -59 4 -56 -6 1 -13 -5 -15
-13 -4 -12 -3 -12 5 -2 5 8 13 13 18 13 5 -1 10 8 10 19 1 11 7 26 14 35 8 10
9 15 1 15 -6 0 -11 -5 -11 -12 0 -6 -7 -4 -18 5 -10 10 -27 16 -38 16 -18 -1
-18 -2 1 -6z"/>
<path d="M2796 1293 c-6 -14 -5 -15 5 -6 7 7 10 15 7 18 -3 3 -9 -2 -12 -12z"/>
<path d="M2930 1295 c0 -8 4 -15 10 -15 5 0 7 7 4 15 -4 8 -8 15 -10 15 -2 0
-4 -7 -4 -15z"/>
<path d="M3182 1291 c6 -11 18 -17 26 -13 10 3 13 1 8 -6 -3 -6 -3 -13 2 -16
5 -3 9 2 9 11 0 9 -9 18 -19 21 -10 2 -18 8 -18 13 0 5 -5 9 -10 9 -6 0 -6 -7
2 -19z"/>
<path d="M3230 1300 c0 -5 5 -10 11 -10 5 0 7 5 4 10 -3 6 -8 10 -11 10 -2 0
-4 -4 -4 -10z"/>
<path d="M2820 1286 c0 -2 9 -6 20 -9 11 -3 20 -1 20 4 0 5 -9 9 -20 9 -11 0
-20 -2 -20 -4z"/>
<path d="M1936 1262 c-3 -5 1 -9 9 -9 8 0 12 4 9 9 -3 4 -7 8 -9 8 -2 0 -6 -4
-9 -8z"/>
<path d="M2830 1260 c0 -5 5 -10 11 -10 5 0 7 5 4 10 -3 6 -8 10 -11 10 -2 0
-4 -4 -4 -10z"/>
<path d="M2967 1251 c-45 -29 -45 -36 1 -11 44 25 59 21 66 -16 11 -51 25 -72
45 -67 12 3 21 8 21 10 0 3 -9 3 -19 0 -27 -7 -37 33 -13 52 15 12 15 13 0 8
-11 -4 -22 3 -32 19 -19 28 -31 29 -69 5z"/>
<path d="M3190 1251 c0 -9 30 -24 36 -18 2 1 -6 8 -16 15 -11 7 -20 8 -20 3z"/>
<path d="M1895 1240 c-3 -5 -1 -10 4 -10 6 0 11 5 11 10 0 6 -2 10 -4 10 -3 0
-8 -4 -11 -10z"/>
<path d="M2980 1231 c-14 -9 -26 -25 -28 -36 -2 -18 -1 -18 11 3 7 12 16 19
20 16 4 -4 7 -2 7 4 0 7 5 12 11 12 5 0 7 -4 4 -10 -3 -5 -1 -10 4 -10 13 0
14 10 3 26 -5 8 -15 6 -32 -5z"/>
<path d="M1950 1236 c0 -2 8 -10 18 -17 15 -13 16 -12 3 4 -13 16 -21 21 -21
13z"/>
<path d="M2230 1219 c0 -5 5 -7 10 -4 6 3 10 8 10 11 0 2 -4 4 -10 4 -5 0 -10
-5 -10 -11z"/>
<path d="M2353 1195 c0 -8 4 -12 9 -9 5 3 6 10 3 15 -9 13 -12 11 -12 -6z"/>
<path d="M2908 1203 c6 -2 18 -2 25 0 6 3 1 5 -13 5 -14 0 -19 -2 -12 -5z"/>
<path d="M3135 1200 c-7 -12 2 -12 30 0 19 8 19 9 -2 9 -12 1 -25 -3 -28 -9z"/>
<path d="M1915 1190 c-3 -5 -1 -10 4 -10 6 0 11 5 11 10 0 6 -2 10 -4 10 -3 0
-8 -4 -11 -10z"/>
<path d="M1946 1182 c-5 -14 -13 -18 -26 -15 -11 3 -20 0 -20 -6 0 -5 8 -8 18
-5 14 5 14 3 -3 -12 -16 -13 -17 -16 -3 -11 20 7 35 -9 16 -16 -9 -4 -10 -6
-1 -6 16 -1 26 16 13 24 -6 4 -4 15 6 31 9 13 14 27 11 30 -3 3 -8 -3 -11 -14z"/>
<path d="M2977 1193 c-10 -10 -8 -23 4 -23 5 0 8 4 5 9 -4 5 0 12 6 14 7 3 8
6 2 6 -6 1 -14 -2 -17 -6z"/>
<path d="M3014 1191 c4 -5 1 -12 -4 -14 -6 -3 -5 -4 2 -3 15 3 23 26 8 26 -6
0 -9 -4 -6 -9z"/>
<path d="M2239 1173 c-13 -16 -12 -17 4 -4 16 13 21 21 13 21 -2 0 -10 -8 -17
-17z"/>
<path d="M2890 1181 c0 -6 4 -12 8 -15 5 -3 9 1 9 9 0 8 -4 15 -9 15 -4 0 -8
-4 -8 -9z"/>
<path d="M3113 1177 c15 -7 24 -17 20 -22 -5 -4 -2 -5 5 0 17 9 5 21 -28 29
-23 5 -23 5 3 -7z"/>
<path d="M3030 1163 c0 -6 8 -17 18 -24 16 -13 16 -13 2 6 -8 11 -16 22 -17
24 -2 2 -3 0 -3 -6z"/>
<path d="M1876 1146 c3 -8 1 -17 -5 -21 -6 -3 -11 -11 -11 -18 0 -15 29 25 30
41 0 6 -4 12 -10 12 -5 0 -7 -6 -4 -14z"/>
<path d="M1970 1149 c0 -5 -4 -7 -10 -4 -5 3 -10 4 -10 1 0 -3 9 -10 19 -15
16 -9 18 -8 14 9 -6 21 -13 27 -13 9z"/>
<path d="M2986 1143 c-6 -14 -5 -15 5 -6 7 7 10 15 7 18 -3 3 -9 -2 -12 -12z"/>
<path d="M3090 1146 c0 -2 7 -7 16 -10 8 -3 12 -2 9 4 -6 10 -25 14 -25 6z"/>
<path d="M3010 1126 c0 -2 7 -7 16 -10 8 -3 12 -2 9 4 -6 10 -25 14 -25 6z"/>
<path d="M1889 1108 c-1 -7 -1 -19 0 -25 2 -14 -15 -18 -22 -5 -2 4 -2 0 1 -8
8 -26 4 -53 -10 -61 -10 -7 -10 -9 0 -9 7 0 17 10 22 23 5 12 9 19 9 15 1 -5
10 1 22 13 17 17 23 18 37 7 16 -12 16 -11 2 6 -14 18 -13 19 3 13 11 -4 16
-3 12 3 -3 6 -1 10 4 10 6 0 11 4 11 8 0 5 -7 9 -15 9 -8 0 -13 -3 -10 -5 3
-3 -11 -16 -31 -30 -43 -29 -56 -23 -17 8 28 22 28 22 3 15 -22 -7 -23 -6 -11
9 9 10 10 16 2 16 -6 0 -12 -6 -12 -12z"/>
<path d="M1835 1090 c-3 -5 -1 -10 4 -10 6 0 11 5 11 10 0 6 -2 10 -4 10 -3 0
-8 -4 -11 -10z"/>
<path d="M1804 1069 c-4 -8 -3 -9 5 -5 6 4 14 0 17 -8 3 -9 10 -13 15 -10 5 3
9 1 9 -5 0 -5 -6 -12 -12 -14 -10 -4 -10 -6 -1 -6 18 -1 25 17 14 36 -6 10
-11 14 -11 9 0 -5 -6 -3 -14 3 -11 9 -16 9 -22 0z"/>
<path d="M1785 1028 c-36 -27 -45 -39 -38 -51 3 -5 0 -7 -8 -5 -8 3 -13 11
-11 17 1 7 -2 9 -9 6 -15 -10 29 -55 47 -48 8 3 14 10 14 15 0 6 -6 6 -14 -2
-12 -9 -15 -8 -13 9 1 13 6 19 14 17 7 -3 10 1 7 9 -4 9 4 19 20 26 14 7 26
16 26 21 0 11 -1 11 -35 -14z"/>
<path d="M1910 1030 c0 -6 7 -10 15 -10 8 0 15 2 15 4 0 2 -7 6 -15 10 -8 3
-15 1 -15 -4z"/>
<path d="M1253 1011 c0 -11 5 -18 9 -15 4 3 5 11 1 19 -7 21 -12 19 -10 -4z"/>
<path d="M1817 1009 c7 -7 15 -10 18 -7 3 3 -2 9 -12 12 -14 6 -15 5 -6 -5z"/>
<path d="M1882 1000 c-7 -11 -18 -17 -27 -14 -8 4 -15 2 -15 -3 0 -17 36 -11
49 9 7 11 11 22 9 24 -2 1 -9 -6 -16 -16z"/>
<path d="M1790 1006 c0 -3 11 -17 24 -31 19 -21 23 -22 20 -8 -5 16 -44 51
-44 39z"/>
<path d="M1935 1000 c3 -5 8 -10 11 -10 2 0 4 5 4 10 0 6 -5 10 -11 10 -5 0
-7 -4 -4 -10z"/>
<path d="M1294 980 c0 -10 6 -16 13 -13 7 3 13 9 13 13 0 4 -6 10 -13 13 -7 3
-13 -3 -13 -13z"/>
<path d="M1900 986 c0 -2 7 -6 15 -10 8 -3 15 -1 15 4 0 6 -7 10 -15 10 -8 0
-15 -2 -15 -4z"/>
<path d="M1316 955 c-11 -8 -18 -17 -15 -19 2 -3 15 4 29 14 14 11 21 20 15
19 -5 0 -19 -6 -29 -14z"/>
<path d="M1885 960 c-3 -5 -2 -10 4 -10 5 0 13 5 16 10 3 6 2 10 -4 10 -5 0
-13 -4 -16 -10z"/>
<path d="M1936 955 c-9 -26 -7 -32 5 -12 6 10 9 21 6 23 -2 3 -7 -2 -11 -11z"/>
<path d="M1375 950 c3 -5 8 -10 11 -10 2 0 4 5 4 10 0 6 -5 10 -11 10 -5 0 -7
-4 -4 -10z"/>
<path d="M1837 928 c-15 -27 -15 -29 -1 -11 13 18 20 21 36 12 11 -6 22 -8 25
-6 2 3 -5 8 -16 12 -12 3 -19 11 -16 16 4 5 2 9 -2 9 -5 0 -17 -15 -26 -32z"/>
<path d="M1350 941 c0 -5 5 -13 10 -16 6 -3 10 -2 10 4 0 5 -4 13 -10 16 -5 3
-10 2 -10 -4z"/>
<path d="M1400 934 c0 -8 -4 -13 -9 -10 -5 3 -11 -1 -14 -9 -4 -10 -1 -12 10
-8 12 5 14 3 8 -7 -5 -8 -4 -11 3 -6 6 3 15 -1 20 -10 5 -9 12 -15 15 -15 21
3 28 0 22 -9 -3 -5 -1 -10 4 -10 23 0 6 33 -19 38 -26 6 -38 22 -33 42 3 11 3
20 -1 20 -3 0 -6 -7 -6 -16z"/>
<path d="M1320 926 c0 -2 7 -7 16 -10 8 -3 12 -2 9 4 -6 10 -25 14 -25 6z"/>
<path d="M1423 920 c2 -8 12 -16 23 -17 13 -2 15 -1 4 4 -8 3 -19 11 -23 17
-6 7 -7 6 -4 -4z"/>
<path d="M1510 924 c1 -14 29 -48 35 -42 3 2 -4 15 -15 28 -11 13 -20 19 -20
14z"/>
<path d="M1846 905 c-3 -8 -1 -15 3 -15 5 0 11 7 15 15 3 8 1 15 -3 15 -5 0
-11 -7 -15 -15z"/>
<path d="M1470 898 c0 -9 5 -20 10 -23 13 -8 13 5 0 25 -8 13 -10 13 -10 -2z"/>
<path d="M1896 893 c-6 -14 -5 -15 5 -6 7 7 10 15 7 18 -3 3 -9 -2 -12 -12z"/>
<path d="M1350 890 c0 -5 7 -10 15 -10 9 0 12 -6 9 -15 -4 -8 -4 -15 -1 -15
16 0 13 31 -3 40 -14 7 -20 7 -20 0z"/>
<path d="M1780 870 c8 -5 13 -10 10 -11 -3 0 -15 -2 -26 -3 -27 -3 -58 -32
-49 -46 4 -6 11 -8 16 -4 5 3 7 9 4 14 -3 4 2 13 10 20 12 10 18 10 30 0 8 -6
20 -10 27 -7 8 3 6 6 -5 6 -10 1 -15 6 -12 12 4 6 14 8 24 5 12 -5 11 -2 -3 9
-11 8 -25 15 -30 15 -6 0 -4 -5 4 -10z"/>
<path d="M1826 844 c-5 -14 -4 -15 9 -4 17 14 19 20 6 20 -5 0 -12 -7 -15 -16z"/>
<path d="M1395 840 c3 -5 8 -10 11 -10 2 0 4 5 4 10 0 6 -5 10 -11 10 -5 0 -7
-4 -4 -10z"/>
<path d="M1441 824 c0 -11 3 -14 6 -6 3 7 2 16 -1 19 -3 4 -6 -2 -5 -13z"/>
<path d="M1750 822 c0 -4 10 -9 22 -9 18 -2 20 0 8 7 -18 12 -30 13 -30 2z"/>
<path d="M1489 783 c-13 -16 -12 -17 4 -4 16 13 21 21 13 21 -2 0 -10 -8 -17
-17z"/>
<path d="M1630 791 c0 -7 -5 -9 -12 -5 -7 5 -8 3 -3 -5 5 -9 10 -10 18 -2 6 6
8 14 4 18 -4 3 -7 1 -7 -6z"/>
<path d="M1516 782 c-3 -5 1 -9 9 -9 8 0 12 4 9 9 -3 4 -7 8 -9 8 -2 0 -6 -4
-9 -8z"/>
<path d="M1553 765 c0 -8 4 -12 9 -9 5 3 6 10 3 15 -9 13 -12 11 -12 -6z"/>
<path d="M1650 771 c0 -6 4 -13 10 -16 6 -3 7 1 4 9 -7 18 -14 21 -14 7z"/>
<path d="M1580 766 c0 -2 7 -6 15 -10 8 -3 15 -1 15 4 0 6 -7 10 -15 10 -8 0
-15 -2 -15 -4z"/>
</g>
</svg>
