<?xml version="1.0" encoding="UTF-8" standalone="no"?>
<!-- Generator: Gravit.io -->
<svg xmlns="http://www.w3.org/2000/svg" xmlns:xlink="http://www.w3.org/1999/xlink" style="isolation:isolate" viewBox="0 0 1946 300" width="1946pt" height="300pt"><defs><clipPath id="_clipPath_0QhX4Cqu3E1ixKAuQzvC50x95SVY1qAL"><rect width="1946" height="300"/></clipPath></defs><g clip-path="url(#_clipPath_0QhX4Cqu3E1ixKAuQzvC50x95SVY1qAL)"><g><defs><filter id="cTyL9UZrwvVToYq8mWCXxVtfybwe8JGy" x="-200%" y="-200%" width="400%" height="400%" filterUnits="objectBoundingBox" color-interpolation-filters="sRGB"><feGaussianBlur xmlns="http://www.w3.org/2000/svg" in="SourceGraphic" stdDeviation="4.293609062839028"/><feOffset xmlns="http://www.w3.org/2000/svg" dx="0" dy="10" result="pf_100_offsetBlur"/><feFlood xmlns="http://www.w3.org/2000/svg" flood-color="#000000" flood-opacity="0.2"/><feComposite xmlns="http://www.w3.org/2000/svg" in2="pf_100_offsetBlur" operator="in" result="pf_100_dropShadow"/><feBlend xmlns="http://www.w3.org/2000/svg" in="SourceGraphic" in2="pf_100_dropShadow" mode="normal"/></filter></defs><g filter="url(#cTyL9UZrwvVToYq8mWCXxVtfybwe8JGy)"><path d=" M 1946 179.971 L 1946 199.747 L 1946 257.32 Q 1504.773 301.819 1288.098 271.401 C 1058.321 239.143 1017.506 235.708 688.034 271.401 Q 288.766 314.654 -37 257.32 L -37 199.747 L -37 179.971 L -37 -136 L 1946 -136 L 1946 179.971 Z " fill-rule="evenodd" fill="rgb(18,125,255)" fill-opacity="0.3"/></g><defs><filter id="7c7mhvBmdP5glDl2jQV4A1E4gi2O0W6b" x="-200%" y="-200%" width="400%" height="400%" filterUnits="objectBoundingBox" color-interpolation-filters="sRGB"><feGaussianBlur xmlns="http://www.w3.org/2000/svg" in="SourceGraphic" stdDeviation="4.293609062839028"/><feOffset xmlns="http://www.w3.org/2000/svg" dx="0" dy="10" result="pf_100_offsetBlur"/><feFlood xmlns="http://www.w3.org/2000/svg" flood-color="#000000" flood-opacity="0.2"/><feComposite xmlns="http://www.w3.org/2000/svg" in2="pf_100_offsetBlur" operator="in" result="pf_100_dropShadow"/><feBlend xmlns="http://www.w3.org/2000/svg" in="SourceGraphic" in2="pf_100_dropShadow" mode="normal"/></filter></defs><g filter="url(#7c7mhvBmdP5glDl2jQV4A1E4gi2O0W6b)"><path d=" M 1946 158.676 L 1946 -136 L -37 -136 L -37 158.676 L -37 199.747 L -37 236.024 Q 170.812 266.443 387.486 236.024 C 617.263 203.767 823.319 200.287 1136.275 236.024 Q 1517.249 279.529 1946 236.024 L 1946 199.747 L 1946 158.676 Z " fill-rule="evenodd" fill="rgb(18,125,255)" fill-opacity="0.4"/></g><defs><filter id="bWx6ZGUccqumDixfi89zjZHHjLeSVzyN" x="-200%" y="-200%" width="400%" height="400%" filterUnits="objectBoundingBox" color-interpolation-filters="sRGB"><feGaussianBlur xmlns="http://www.w3.org/2000/svg" in="SourceGraphic" stdDeviation="4.293609062839028"/><feOffset xmlns="http://www.w3.org/2000/svg" dx="0" dy="10" result="pf_100_offsetBlur"/><feFlood xmlns="http://www.w3.org/2000/svg" flood-color="#000000" flood-opacity="0.2"/><feComposite xmlns="http://www.w3.org/2000/svg" in2="pf_100_offsetBlur" operator="in" result="pf_100_dropShadow"/><feBlend xmlns="http://www.w3.org/2000/svg" in="SourceGraphic" in2="pf_100_dropShadow" mode="normal"/></filter></defs><g filter="url(#bWx6ZGUccqumDixfi89zjZHHjLeSVzyN)"><path d=" M 1946 175.154 L 1946 199.747 L 1946 252.503 Q 1367.498 209.348 1117.684 241.379 C 867.871 273.409 669.168 273.395 545.506 252.503 Q 280.374 207.709 -37 252.503 L -37 199.747 L -37 175.154 L -37 -136 L 1946 -136 L 1946 175.154 Z " fill-rule="evenodd" fill="rgb(18,125,255)" fill-opacity="0.5"/></g></g></g></svg>